<svg xmlns="http://www.w3.org/2000/svg" xmlns:xlink="http://www.w3.org/1999/xlink" width="582" height="550"><defs><circle id="a" cx="40.6" cy="40.6" r="40.6"/><circle id="c" cx="40.6" cy="40.6" r="40.6"/><circle id="e" cx="33.9" cy="33.9" r="33.9"/><circle id="g" cx="33.9" cy="33.9" r="33.9"/><path id="i" d="M79.2 60L66 73.3c-4 4.2-9.7 6.2-16 6.2A49 49 0 0 1 17 63.3C.3 46.5-3.9 24.5 7.1 13.3L21.1 0l58 60z"/><path id="k" d="M0 0h46.2v22.1H0z"/><path id="m" d="M0 0h46.2v22.1H0z"/><path id="o" d="M0 0h46.2v22.1H0z"/><path id="q" d="M0 0h46.2v22.1H0z"/><circle id="s" cx="29" cy="29" r="29"/><circle id="u" cx="29" cy="29" r="29"/><circle id="w" cx="24.2" cy="24.2" r="24.2"/><circle id="y" cx="24.2" cy="24.2" r="24.2"/><path id="A" d="M0 0h22.7v27.8H0z"/><path id="C" d="M26.7 0c14.8 0 26.8 12 26.8 26.7v25.8H0V26.7C0 12 12 0 26.7 0z"/><path id="E" d="M26.7 0c14.8 0 26.8 12 26.8 26.7v25.8H0V26.7C0 12 12 0 26.7 0z"/><ellipse id="G" cx="23.1" cy="23.1" rx="23.1" ry="23.1"/><ellipse id="I" cx="23.1" cy="23.1" rx="23.1" ry="23.1"/><ellipse id="K" cx="19.3" cy="19.3" rx="19.3" ry="19.3"/><ellipse id="M" cx="19.3" cy="19.3" rx="19.3" ry="19.3"/><path id="O" d="M23.3 51.6c.8 0 3 8.6 6.5 25.8l.6 6.6a41.8 41.8 0 0 0 38.7-41.8c0-9.5-2.4-15-10.1-17.8v.5c.1 1.8 0 2.8-.5 3.1C38 42 23.9 45.8 20 43.8c-6-3 1.7-22.3-5.4-22.3-3 0-3.4-7.1-1.5-21.3L12 .6C-5.1 6.4 2.9 23 2.9 42.2c0 23.9-3.5 9.4 20.4 9.4z"/><path id="Q" d="M23.3 51.6c.8 0 3 8.6 6.5 25.8l.6 6.6a41.8 41.8 0 0 0 38.7-41.8c0-9.5-2.4-15-10.1-17.8v.5c.1 1.8 0 2.8-.5 3.1C38 42 23.9 45.8 20 43.8c-6-3 1.7-22.3-5.4-22.3-3 0-3.4-7.1-1.5-21.3L12 .6C-5.1 6.4 2.9 23 2.9 42.2c0 23.9-3.5 9.4 20.4 9.4z"/><path id="S" d="M52.3 81.4L47 75.6V65.2l-4.2-10.7 1 10.7-7 10.4.6 7a41.8 41.8 0 0 1-6-82v.7A31.3 31.3 0 0 0 81 26.7a41.7 41.7 0 0 1-28.7 54.7z"/><path id="U" d="M52.3 81.4L47 75.6V65.2l-4.2-10.7 1 10.7-7 10.4.6 7a41.8 41.8 0 0 1-6-82v.7A31.3 31.3 0 0 0 81 26.7a41.7 41.7 0 0 1-28.7 54.7z"/><path id="W" d="M52.3 81.4L47 75.6V65.2l-4.2-10.7 1 10.7-7 10.4.6 7a41.8 41.8 0 0 1-6-82v.7A31.3 31.3 0 0 0 81 26.7a41.7 41.7 0 0 1-28.7 54.7z"/><path id="Y" d="M52.3 81.4L47 75.6V65.2l-4.2-10.7 1 10.7-7 10.4.6 7a41.8 41.8 0 0 1-6-82v.7A31.3 31.3 0 0 0 81 26.7a41.7 41.7 0 0 1-28.7 54.7z"/></defs><g fill="none" fill-rule="evenodd"><path fill="#FCEEEE" fill-rule="nonzero" d="M229.8 68.1c2 0 21 .2 23 .6 1.4-8 6.1-14.7 12.6-18.4a21.9 21.9 0 0 1 21-.4c6-18.4 24.3-27.8 41-21.2 16.5 6.7 25.1 27 19 45.3 14.6.6 26.1 13.9 25.9 30-.2 16-12 29-26.6 29h-116a32.4 32.4 0 0 1 0-64.9z"/><path fill="#FFA292" fill-rule="nonzero" d="M328.1 40.6c2.8-.6 5-1.6 6.6-3.3 1.7-1.6 2.8-3.8 3.3-6.6.6 2.8 1.6 5 3.3 6.6 1.6 1.7 3.8 2.8 6.6 3.3-2.8.5-5 1.6-6.6 3.3a12.5 12.5 0 0 0-3.3 6.6c-.6-2.8-1.6-5-3.3-6.6a12.5 12.5 0 0 0-6.6-3.3z"/><g transform="translate(254 51.5)"><circle cx="40.6" cy="40.6" r="40.6" fill="#AA342C" fill-rule="nonzero" transform="translate(6.8)"/><g transform="translate(6.8)"><mask id="b" fill="#fff"><use xlink:href="#a"/></mask><path fill="#F5576E" fill-rule="nonzero" d="M40.6 3.4h40.7V4H40.6v-.7zm0 6.8h40.7v.6H40.6v-.6zm0 10.1h40.7v1.4H40.6v-1.4zm0 13.6h40.7v1.3H40.6V34zm0 13.5h40.7v1.4H40.6v-1.4zm0 13.6h40.7v1.3H40.6V61zm0 10.1h40.7v.7H40.6v-.7zm0 6.8h40.7v.7H40.6v-.7z" mask="url(#b)"/></g><g transform="translate(6.8)"><mask id="d" fill="#fff"><use xlink:href="#c"/></mask><path fill="#FFF" fill-rule="nonzero" d="M63.7 19.6h15.6v1H63.7v-1zm2 13.6h15.6v1H65.7v-1zM58.3 8.8h15.5v1.4H58.3V8.8zM46.7 2h15.6v1.4H46.7V2z" mask="url(#d)"/></g><circle cx="40.6" cy="40.6" r="39.8" fill="#F24C32" fill-rule="nonzero" stroke="#862923" stroke-width="1.7"/><g><circle cx="33.9" cy="33.9" r="33.9" fill="#862923" fill-rule="nonzero" transform="translate(6.8 6.8)"/><g transform="translate(6.8 6.8)"><mask id="f" fill="#fff"><use xlink:href="#e"/></mask><circle cx="36.6" cy="33.9" r="33.9" fill="#F24C32" fill-rule="nonzero" mask="url(#f)"/></g><g transform="translate(6.8 6.8)"><mask id="h" fill="#fff"><use xlink:href="#g"/></mask><g fill-rule="nonzero" mask="url(#h)"><path fill="#AA342C" d="M22 22h7.4l3 .3c1 .2 1.8.5 2.6 1 .7.5 1.3 1.1 1.7 1.9.5.8.7 1.8.7 3 0 1.6-.4 3-1.3 4-.8 1-2 1.7-3.6 2l5.6 9.5h-4.6l-5-9.2h-2.7v9.2H22V22zm6.8 9.2h1.6l1.5-.4c.4-.2.8-.5 1.1-1 .3-.3.4-.9.4-1.6a2.4 2.4 0 0 0-1.4-2.4l-1.4-.4h-4.8v5.8h3zM40.7 29H44v2.2c.6-.9 1.3-1.5 2.2-2 .9-.4 1.9-.6 2.9-.6s2 .2 3 .6a6.7 6.7 0 0 1 3.6 4.1 9.4 9.4 0 0 1 0 6.1c-.3.9-.8 1.7-1.4 2.5a6.6 6.6 0 0 1-5 2.2 6.9 6.9 0 0 1-3.3-.8 5.6 5.6 0 0 1-1.7-1.4v8.8h-3.7V29zm12 7.4c0-.6-.1-1.2-.3-1.7a4.2 4.2 0 0 0-4-2.8 4.1 4.1 0 0 0-4 2.8 4.9 4.9 0 0 0 0 3.3 4.2 4.2 0 0 0 4 2.8 4.1 4.1 0 0 0 4-2.8c.2-.5.3-1 .3-1.6z"/><path fill="#FFF" d="M19 22h7.4l3 .3c1 .2 1.8.5 2.5 1 .8.5 1.4 1.1 1.8 1.9.5.8.7 1.8.7 3 0 1.6-.4 3-1.3 4s-2 1.7-3.7 2l5.7 9.5h-4.6l-5-9.2h-2.7v9.2H19V22zm6.8 9.2h1.6l1.5-.4c.4-.2.8-.5 1-1 .4-.3.5-.9.5-1.6 0-.6-.1-1.1-.4-1.5-.2-.4-.6-.7-1-1l-1.4-.3h-4.8v5.8h3zM37.7 29H41v2.2c.6-.9 1.3-1.5 2.2-2a7.2 7.2 0 0 1 5.9 0 6.7 6.7 0 0 1 3.6 4.1 9.3 9.3 0 0 1 0 6.1c-.3.9-.8 1.7-1.4 2.5a6.6 6.6 0 0 1-5.1 2.2 6.9 6.9 0 0 1-3.2-.8 5.5 5.5 0 0 1-1.7-1.4h-.1v8.8h-3.6V29zm12 7.4c0-.6-.1-1.2-.3-1.7a4.2 4.2 0 0 0-4-2.8 4.1 4.1 0 0 0-4 2.8 4.9 4.9 0 0 0 .9 4.7 4.2 4.2 0 0 0 4.9 1 4.2 4.2 0 0 0 2.2-2.4c.2-.5.3-1 .3-1.6z"/></g></g></g></g><path fill="#FFF" fill-rule="nonzero" d="M302.9 65.8c2-.4 3.5-1.2 4.6-2.3 1.2-1.2 2-2.7 2.3-4.6.4 1.9 1.2 3.4 2.3 4.6 1.2 1.1 2.7 2 4.7 2.3-2 .4-3.5 1.2-4.7 2.3a8.8 8.8 0 0 0-2.3 4.6c-.4-1.9-1.1-3.4-2.3-4.6a8.8 8.8 0 0 0-4.6-2.3z"/><path fill="#F24C32" fill-rule="nonzero" d="M338.8 59.5c1.9-.4 3.4-1.2 4.6-2.3 1.1-1.2 2-2.7 2.3-4.6.4 1.9 1.2 3.4 2.3 4.6 1.2 1.1 2.7 2 4.6 2.3-1.9.4-3.4 1.2-4.6 2.3a8.8 8.8 0 0 0-2.3 4.6c-.4-1.9-1.2-3.4-2.3-4.6a8.8 8.8 0 0 0-4.6-2.3z"/><path fill="#FFF" fill-rule="nonzero" d="M315 78.4c3.2-.7 5.9-2 7.8-4 2-2 3.3-4.6 4-7.9.7 3.3 2 6 4 8s4.6 3.2 7.9 3.9c-3.3.7-6 2-8 4a15 15 0 0 0-3.9 7.9c-.7-3.3-2-6-4-8a15 15 0 0 0-7.9-3.9z"/><path fill="#862923" fill-rule="nonzero" d="M208.5 81.8l13 13.3c4.1 4.2 9.8 6.2 16 6.2A49 49 0 0 0 270.7 85c16.6-16.8 20.9-38.8 9.8-50l-14-13.3-58 60z"/><g transform="matrix(-1 0 0 1 287.7 21.8)"><mask id="j" fill="#fff"><use xlink:href="#i"/></mask><path fill="#AA342C" fill-rule="nonzero" d="M82.5 56.7L69.5 70c-4.1 4.2-9.8 6.2-16 6.2A49 49 0 0 1 20.3 60C3.7 43.2-.6 21.2 10.5 10l13-13.3 59 60z" mask="url(#j)"/></g><path fill="#FFA292" fill-rule="nonzero" d="M209 82c4 4 9.5 6 16 6 2.4 0 5-.2 7.7-.9 9-2 18-7.3 25.7-14.8a54 54 0 0 0 15-25.5c2.3-9.5.5-18-5.1-23.4-8.8-8.7-24.8-7.9-39.8 2L211 42.7c-10 14.8-10.8 30.7-2 39.3z"/><path fill="#AA342C" fill-rule="nonzero" d="M209 82c4.1 4 9.6 6 16 6 2.5 0 5.2-.3 7.9-1a55 55 0 0 0 25.8-15l-38.9-39.2-8.8 8.9c-10 15.1-10.8 31.4-2 40.2z" opacity=".2"/><path fill="#AA342C" fill-rule="nonzero" d="M230.9 57c3.5 0 6.9-1.4 9.3-3.9 2.5-2.4 4-5.7 4-9.2l-28-37.2c-5.9-7.5-17.5-8.4-24.6-1.4-7 6.9-6.2 18.3 1.5 24.3L231 57z"/><path fill="#862923" fill-rule="nonzero" d="M230.4 57.3c3.5 0 7.4-1.7 9.8-4.2L191.6 5c-7 7-6.2 18.5 1.5 24.5l37.3 27.9z"/><path fill="#FCEEEE" fill-rule="nonzero" d="M20.2 202.5c1.4 0 15 .2 16.5.6 1-6.5 4.3-12 9-15a14 14 0 0 1 15-.3c4.2-14.8 17.3-22.5 29.2-17 11.8 5.3 18 21.7 13.7 36.6 10.3.4 18.6 11.1 18.4 24.1-.2 13-8.6 23.5-19 23.5H20.2C8.6 255 1 243.3 1 228.8s7.6-26.3 19.2-26.3z"/><g transform="translate(1 163)"><path fill="#FFA292" fill-rule="nonzero" d="M107.2 20.3h71.2v71.4h-71.2z"/><path fill="#FFDBD5" fill-rule="nonzero" d="M91.9 17.3h30.6v3H91.9z"/><path fill="#FEA0AD" fill-rule="nonzero" d="M122.5 17.3h53.7v3h-53.7z"/><path fill="#F7C9C9" fill-rule="nonzero" d="M102.1 4h10.2l10.2 13.3H91.9z"/><path fill="#862923" fill-rule="nonzero" d="M112.3 4H166l10.2 13.3h-53.7z"/><path fill="#FFA292" fill-rule="nonzero" d="M81.7 20.3h30.6v71.4H81.7z"/><path fill="#E74E4E" fill-rule="nonzero" d="M90.9 28H104v63.7H91z"/><path fill="#862923" fill-rule="nonzero" d="M96.5 28h7.6v63.7h-7.6z"/><g transform="translate(0 19)"><circle cx="25" cy="32" r="25" fill="#F9F9F9" fill-rule="nonzero" stroke="#FFA292"/><path fill="#FFA292" fill-rule="nonzero" d="M17 55h16l-8 8z"/><path fill="#FFA292" fill-rule="nonzero" d="M7.1 49.5A12 12 0 0 1 19 39h12a12 12 0 0 1 11.9 10.5 25 25 0 0 1-35.8 0z"/><path fill="#E74E4E" fill-rule="nonzero" d="M19 39h12v2a6 6 0 1 1-12 0v-2z"/><path fill="#FFDBD5" fill-rule="nonzero" d="M20 36h10v5a5 5 0 0 1-10 0v-5z"/><path fill="#862923" fill-rule="nonzero" d="M20 36h10a4 4 0 0 1-4 4h-2a4 4 0 0 1-4-4z"/><g transform="translate(10)"><path fill="#FFDBD5" fill-rule="nonzero" d="M27 25.9c1 .3 2.3-1 2.8-2.9s0-3.6-1-3.9c-1-.3-2.4 0-2.9 1.9-.5 1.8 0 4.6 1 4.9zm-23.5 0c-1 .3-2.3-1-2.8-2.9s0-3.6 1-3.9c1-.3 2.4 0 2.9 1.9.5 1.8 0 4.6-1 4.9z"/><path fill="#FFDBD5" fill-rule="nonzero" d="M15.2 38c6.7 0 12-7.2 12-16 0-9 .2-16-12-16s-12 7-12 16c0 8.8 5.4 16 12 16z"/><circle cx="20.2" cy="20.9" r="1" fill="#862923" fill-rule="nonzero"/><circle cx="10.2" cy="20.9" r="1" fill="#862923" fill-rule="nonzero"/><path stroke="#862923" stroke-linecap="round" d="M19.2 29c-.8 1.3-2.1 2-4 2-1.8 0-3.2-.7-4-2"/><path stroke="#E74E4E" stroke-linecap="round" d="M16.2 26c-.2.6-.5 1-1 1-.4 0-.8-.4-1-1"/><path stroke="#862923" stroke-linecap="round" d="M22.2 17.3a4 4 0 0 0-2-.6 4 4 0 0 0-2 .6m-6 0a4 4 0 0 0-2-.6 4 4 0 0 0-2 .6"/><path fill="#E74E4E" fill-rule="nonzero" d="M15 .2A8 8 0 0 0 5 8.2c-2.3.4-3.3 3.5-2.8 7.4l1.1 7c.7-.4 1-1.1 1-2V20a5 5 0 0 1 1.4-3.4c.7-3.4 1.6-5.4 2.6-6 1.2-1.7 6.9.2 17.1 6l1.3 1.4v2.3c0 .7.2 1.3.6 1.7 1.2-6 1.2-10.1 0-12.5-2.8-6-10-8.7-12.2-9.2z"/><path fill="#862923" fill-rule="nonzero" d="M26.6 18l-1.3-1.5c-10.3-5.8-16-7.7-17-6-1.1.6-2 2.6-2.7 6-.2-3 .1-4.8 1-5.5.6-.4 1-.6 1.6-.4.9-3 3-4.2 6.3-3.9 3.3.4 7.4 4 12 11.2z"/></g></g><g transform="translate(25 57)"><path fill="#862923" fill-rule="nonzero" d="M0 3h50v26H0z"/><path fill="#E74E4E" fill-rule="nonzero" d="M0 0h50v26H0z"/><path fill="#FFF" fill-rule="nonzero" d="M2 2h46v22H2z"/><g transform="translate(2 2)"><mask id="l" fill="#fff"><use xlink:href="#k"/></mask><ellipse cx="1.3" cy="1.3" fill="#E74E4E" fill-rule="nonzero" mask="url(#l)" rx="3.8" ry="3.9"/></g><g transform="translate(2 2)"><mask id="n" fill="#fff"><use xlink:href="#m"/></mask><ellipse cx="1.3" cy="20.8" fill="#E74E4E" fill-rule="nonzero" mask="url(#n)" rx="3.8" ry="3.9"/></g><g transform="translate(2 2)"><mask id="p" fill="#fff"><use xlink:href="#o"/></mask><ellipse cx="44.9" cy="1.3" fill="#E74E4E" fill-rule="nonzero" mask="url(#p)" rx="3.8" ry="3.9"/></g><g transform="translate(2 2)"><mask id="r" fill="#fff"><use xlink:href="#q"/></mask><ellipse cx="44.9" cy="20.8" fill="#E74E4E" fill-rule="nonzero" mask="url(#r)" rx="3.8" ry="3.9"/></g><ellipse cx="46.5" cy="3.6" fill="#FFF" fill-rule="nonzero" rx="1.6" ry="1.6"/><ellipse cx="46.5" cy="22.4" fill="#FFF" fill-rule="nonzero" rx="1.6" ry="1.6"/><ellipse cx="3.5" cy="3.6" fill="#FFF" fill-rule="nonzero" rx="1.6" ry="1.6"/><ellipse cx="3.5" cy="22.4" fill="#FFF" fill-rule="nonzero" rx="1.6" ry="1.6"/><ellipse cx="25" cy="13" fill="#E74E4E" fill-rule="nonzero" rx="10.3" ry="10.4"/><path fill="#FFF" fill-rule="nonzero" d="M19.2 8.4H22c.4 0 .7 0 1 .2.4 0 .6.2.9.3l.6.7.2 1c0 .6-.2 1-.4 1.4-.3.4-.7.6-1.1.7l1.7 3.1H23l-1.5-3h-.7v3h-1.6V8.4zm1.6 3.1H22l.4-.1c.2 0 .3-.1.3-.3l.2-.4-.1-.5-.3-.2-.4-.1a3 3 0 0 0-.4 0h-1v1.6zm4.8-.7h1.3v.6l.6-.5.4-.2h.5l1 .1.7.6.5.8.2 1c0 .4 0 .7-.2 1 0 .4-.2.7-.4 1l-.7.5c-.3.2-.6.3-1 .3l-.8-.2-.6-.5v2.9h-1.5v-7.4zm1.3 2.5c0 .4.1.7.3 1 .2.2.5.3 1 .3.3 0 .6-.1.8-.4.2-.2.3-.5.3-1 0-.3-.1-.6-.3-.8-.2-.3-.5-.4-.9-.4s-.7.1-.9.4c-.2.2-.3.5-.3.9z"/></g><path stroke="#862923" stroke-linecap="round" stroke-width="3.2" d="M60.6 38h9.1m-2.4 5.7l5.2-5.7-5.5-5.6"/><path fill="#FFA292" fill-rule="nonzero" d="M116.5 28H104v63.7h12.4z"/><path fill="#E74E4E" fill-rule="nonzero" d="M103.9 35.8h11v1h-11v-1zm0 4h11v1h-11v-1zm0 4.1h11v1h-11v-1zm0 4.1h11v1h-11v-1zm0 4h11v1.1h-11v-1zm0 4.2h11v1h-11v-1zm0 4h11v1h-11v-1zm0 4.1h11v1h-11v-1zm0 4.1h11v1h-11v-1zm0 4h11v1.1h-11v-1zM107 80h74v12h-74V80z"/><path fill="#F9F9F9" fill-rule="nonzero" d="M123 34v42h3v4h-14v-4h3V34h-3v-4h14v4h-3zm25 0v42h3v4h-14v-4h3V34h-3v-4h14v4h-3zm25 0v42h3v4h-14v-4h3V34h-3v-4h14v4h-3z"/><path stroke="#862923" stroke-width=".8" d="M79.4 91.5h119.5m-159.5 0h20"/><path fill="#E74E4E" fill-rule="nonzero" d="M107 20l37-20 37 20v10h-74z"/><circle cx="144" cy="15" r="5" fill="#F9F9F9" fill-rule="nonzero"/></g><g transform="translate(187 219)"><ellipse cx="8" cy="12" fill="#FFDBD5" fill-rule="nonzero" rx="8" ry="12"/><path stroke="#862923" stroke-linecap="square" d="M8 9v26.5"/></g><path fill="#FCEEEE" fill-rule="nonzero" d="M454 201.5c1.7 0 18.8.2 20.5.6a21.4 21.4 0 0 1 29.9-15.3 28.5 28.5 0 1 1 53.6 19.6 23.8 23.8 0 0 1-.7 47.6H454c-14.5 0-24-11.7-24-26.2s9.5-26.3 24-26.3z"/><g transform="matrix(-1 0 0 1 411 218)"><ellipse cx="8" cy="12" fill="#FFDBD5" fill-rule="nonzero" rx="8" ry="12"/><path stroke="#862923" stroke-linecap="square" d="M8 9v26.5"/></g><g transform="matrix(-1 0 0 1 526 229)"><ellipse cx="5" cy="8" fill="#FFA292" fill-rule="nonzero" rx="5" ry="8"/><path stroke="#862923" stroke-linecap="square" d="M5 8v16.7"/></g><path fill="#FFDBD5" fill-rule="nonzero" d="M404 248.3l3.9.1a4 4 0 0 1 5.6-2.8 5.4 5.4 0 1 1 10.1 3.7c2.5 0 4.4 2 4.4 4.5h-28.6c0-2.7 1.8-5.5 4.6-5.5z"/><path stroke="#862923" stroke-linecap="round" stroke-width="3.2" d="M501.6 211h9.1m-2.4 5.7l5.2-5.7-5.5-5.6"/><path stroke="#862923" stroke-linecap="round" d="M419.6 254H570m-168.7 0h10"/><g transform="translate(423 191)"><circle cx="29" cy="29" r="29" fill="#AA342C" fill-rule="nonzero" transform="translate(4.8)"/><g transform="translate(4.8)"><mask id="t" fill="#fff"><use xlink:href="#s"/></mask><path fill="#F5576E" fill-rule="nonzero" d="M29 2.4h29V3H29v-.5zm0 4.9h29v.4H29v-.4zm0 7.2h29v1H29v-1zm0 9.7h29v1H29v-1zm0 9.7h29v1H29v-1zm0 9.6h29v1H29v-1zm0 7.3h29v.5H29v-.5zm0 4.8h29v.5H29v-.5z" mask="url(#t)"/></g><g transform="translate(4.8)"><mask id="v" fill="#fff"><use xlink:href="#u"/></mask><path fill="#FFF" fill-rule="nonzero" d="M45.5 14h11.1v1H45.5v-1zm1.4 9.7h11.2v1H46.9v-1zM41.6 6.3h11.1v1h-11v-1zm-8.2-4.8h11.1v1H33.4v-1z" mask="url(#v)"/></g><circle cx="29" cy="29" r="28.4" fill="#F24C32" fill-rule="nonzero" stroke="#862923" stroke-width="1.2"/><g><circle cx="24.2" cy="24.2" r="24.2" fill="#862923" fill-rule="nonzero" transform="translate(4.8 4.8)"/><g transform="translate(4.8 4.8)"><mask id="x" fill="#fff"><use xlink:href="#w"/></mask><circle cx="26.1" cy="24.2" r="24.2" fill="#F24C32" fill-rule="nonzero" mask="url(#x)"/></g><g transform="translate(4.8 4.8)"><mask id="z" fill="#fff"><use xlink:href="#y"/></mask><g fill-rule="nonzero" mask="url(#z)"><path fill="#AA342C" d="M15.2 16h5.4c.8 0 1.5 0 2.2.2.7.1 1.3.4 1.9.7.5.3 1 .8 1.3 1.3.3.6.5 1.3.5 2.1 0 1.1-.3 2-1 2.8a4 4 0 0 1-2.6 1.3l4.1 6.7h-3.4L20 24.7h-2v6.4h-2.8V16zm5 6.4h1.1c.4 0 .8-.2 1.1-.3.4-.1.6-.3.8-.6.3-.3.4-.7.4-1.2 0-.4-.1-.8-.3-1l-.8-.7-1-.2H18v4h2.2zm8.7-1.5h2.5v1.5c.4-.6 1-1 1.6-1.4a5.5 5.5 0 0 1 4.3 0A4.9 4.9 0 0 1 40 24a6.2 6.2 0 0 1 0 4.2c-.3.7-.7 1.2-1.1 1.7-.5.5-1 .9-1.6 1.2-.7.2-1.4.4-2.1.4a5.3 5.3 0 0 1-2.3-.6 4 4 0 0 1-1.3-1V36h-2.7V20.9zm8.8 5l-.2-1a2.9 2.9 0 0 0-1.6-1.7l-1.3-.3a3.2 3.2 0 0 0-2.3 1c-.3.2-.5.6-.6 1a3.2 3.2 0 0 0 .6 3.2 3 3 0 0 0 2.3 1c.4 0 .9-.1 1.3-.3a3 3 0 0 0 1-.7l.6-1 .2-1.1z"/><path fill="#FFF" d="M13 16h5.4c.8 0 1.5 0 2.2.2.7.1 1.3.4 1.9.7.5.3 1 .8 1.3 1.3.3.6.5 1.3.5 2.1 0 1.1-.3 2-1 2.8a4 4 0 0 1-2.7 1.3l4.2 6.7h-3.4l-3.6-6.4h-2v6.4H13V16zm5 6.4H19c.4 0 .8-.2 1.1-.3.4-.1.6-.3.8-.6.2-.3.3-.7.3-1.2 0-.4 0-.8-.2-1l-.8-.7-1-.2h-3.5v4h2.1zm8.7-1.5h2.5v1.5c.4-.6 1-1 1.6-1.4a5.5 5.5 0 0 1 4.3 0 4.9 4.9 0 0 1 2.7 2.9 6.2 6.2 0 0 1 0 4.2c-.3.7-.7 1.2-1.1 1.7-.5.5-1 .9-1.6 1.2-.7.2-1.4.4-2.1.4a5.3 5.3 0 0 1-2.4-.6 4 4 0 0 1-1.2-1V36h-2.7V20.9zm8.8 5l-.2-1a2.9 2.9 0 0 0-1.6-1.7c-.5-.2-.9-.3-1.4-.3a3.2 3.2 0 0 0-2.2 1c-.3.2-.5.6-.7 1a3.2 3.2 0 0 0 .7 3.2 3 3 0 0 0 2.2 1c.5 0 1-.1 1.4-.3l1-.7.6-1 .2-1.1z"/></g></g></g></g><g transform="translate(531 182)"><circle cx="25" cy="32" r="25" fill="#F9F9F9" fill-rule="nonzero" stroke="#FFA292"/><path fill="#FFA292" fill-rule="nonzero" d="M17 55h16l-8 8z"/><path fill="#FFA292" fill-rule="nonzero" d="M7.1 49.5A12 12 0 0 1 19 39h12a12 12 0 0 1 11.9 10.5 25 25 0 0 1-35.8 0z"/><path fill="#E74E4E" fill-rule="nonzero" d="M19 39h12v2a6 6 0 1 1-12 0v-2z"/><path fill="#FFDBD5" fill-rule="nonzero" d="M20 36h10v5a5 5 0 0 1-10 0v-5z"/><path fill="#862923" fill-rule="nonzero" d="M20 36h10a4 4 0 0 1-4 4h-2a4 4 0 0 1-4-4z"/><g transform="translate(10)"><path fill="#FFDBD5" fill-rule="nonzero" d="M27 25.9c1 .3 2.3-1 2.8-2.9s0-3.6-1-3.9c-1-.3-2.4 0-2.9 1.9-.5 1.8 0 4.6 1 4.9zm-23.5 0c-1 .3-2.3-1-2.8-2.9s0-3.6 1-3.9c1-.3 2.4 0 2.9 1.9.5 1.8 0 4.6-1 4.9z"/><path fill="#FFDBD5" fill-rule="nonzero" d="M15.2 38c6.7 0 12-7.2 12-16 0-9 .2-16-12-16s-12 7-12 16c0 8.8 5.4 16 12 16z"/><circle cx="20.2" cy="20.9" r="1" fill="#862923" fill-rule="nonzero"/><circle cx="10.2" cy="20.9" r="1" fill="#862923" fill-rule="nonzero"/><path stroke="#862923" stroke-linecap="round" d="M19.2 29c-.8 1.3-2.1 2-4 2-1.8 0-3.2-.7-4-2"/><path stroke="#E74E4E" stroke-linecap="round" d="M16.2 26c-.2.6-.5 1-1 1-.4 0-.8-.4-1-1"/><path stroke="#862923" stroke-linecap="round" d="M22.2 17.3a4 4 0 0 0-2-.6 4 4 0 0 0-2 .6m-6 0a4 4 0 0 0-2-.6 4 4 0 0 0-2 .6"/><path fill="#E74E4E" fill-rule="nonzero" d="M15 .2A8 8 0 0 0 5 8.2c-2.3.4-3.3 3.5-2.8 7.4l1.1 7c.7-.4 1-1.1 1-2V20a5 5 0 0 1 1.4-3.4c.7-3.4 1.6-5.4 2.6-6 1.2-1.7 6.9.2 17.1 6l1.3 1.4v2.3c0 .7.2 1.3.6 1.7 1.2-6 1.2-10.1 0-12.5-2.8-6-10-8.7-12.2-9.2z"/><path fill="#862923" fill-rule="nonzero" d="M26.6 18l-1.3-1.5c-10.3-5.8-16-7.7-17-6-1.1.6-2 2.6-2.7 6-.2-3 .1-4.8 1-5.5.6-.4 1-.6 1.6-.4.9-3 3-4.2 6.3-3.9 3.3.4 7.4 4 12 11.2z"/></g></g><path fill="#AA342C" fill-rule="nonzero" d="M274 179.6l11-9.8 1.6-1.8c.6-.6.9-1.3.9-2.2 0-1-.4-1.7-1-2.3-.8-.5-1.6-.8-2.5-.8-1.1 0-2 .4-2.6 1-.6.8-1 1.6-1 2.6l-6-.4a8 8 0 0 1 6.1-8.1 13.2 13.2 0 0 1 7.4 0c1.1.3 2.1.8 3 1.5.8.7 1.4 1.6 1.9 2.7.4 1 .7 2.3.7 3.7 0 1-.1 1.7-.3 2.5a8.3 8.3 0 0 1-2 3.6l-1.4 1.5-8.6 7.4h12.5v5.3H274v-6.4zM64.5 124.4l-5.7 5-3.4-4 9.3-7.7h5.6V146h-5.8v-21.6zm434.1.4h3.6l1.5-.5c.4-.3.8-.6 1-1 .3-.4.5-1 .5-1.6 0-.9-.4-1.6-1-2.1-.7-.6-1.6-.9-2.6-.9-.9 0-1.7.3-2.3.8-.6.5-1 1.1-1.2 1.9l-6.6-1.4a9 9 0 0 1 1.5-3.1 8 8 0 0 1 2.2-2.1c1-.6 1.9-1 3-1.2a15 15 0 0 1 7 0c1.2.4 2.2.8 3 1.5 1 .7 1.7 1.5 2.2 2.5.5 1 .8 2.1.8 3.5 0 1.6-.5 2.9-1.3 4s-2 1.9-3.6 2.2v.1a5.6 5.6 0 0 1 4 2.2l1 2 .3 2.4a7.8 7.8 0 0 1-3 6.4c-.9.7-2 1.2-3.2 1.6-1.3.3-2.6.5-4 .5-2.5 0-4.7-.6-6.5-1.8-1.8-1.2-3-3-3.6-5.5l6.3-1.5c.2 1 .6 1.8 1.3 2.4.7.6 1.6.9 2.9.9 1.3 0 2.3-.4 2.9-1 .6-.7 1-1.6 1-2.7a3 3 0 0 0-.6-1.8 3 3 0 0 0-1.3-1c-.5-.2-1.1-.4-1.8-.4h-3.4v-5.3z"/><g stroke="#DF4E40" stroke-width="5"><path stroke-dasharray="10,10" d="M104.1 138.2c15.5-24.9 39.3-40.4 71.7-46.8"/><path stroke-linecap="round" d="M172.6 101.1l6.6-11.8-12.8-3.7"/></g><g stroke="#DF4E40" stroke-width="5"><path stroke-dasharray="10,10" d="M398.7 87.3c28.7 6 51.5 23.1 68.5 51.3"/><path stroke-linecap="round" d="M457 139l13.4 2.2-1-13.4"/></g><g><path fill="#FCEEEE" fill-rule="nonzero" d="M20.2 354.5c1.4 0 15 .2 16.5.6 1-6.5 4.3-12 9-15a14 14 0 0 1 15-.3c4.2-14.8 17.3-22.5 29.2-17 11.8 5.3 18 21.7 13.7 36.6 10.3.4 18.6 11.1 18.4 24.1-.2 13-8.6 23.5-19 23.5H20.2C8.6 407 1 395.3 1 380.8s7.6-26.3 19.2-26.3z"/><g transform="translate(6 334)"><circle cx="25" cy="32" r="25" fill="#F9F9F9" fill-rule="nonzero" stroke="#FFA292"/><path fill="#FFA292" fill-rule="nonzero" d="M17 55h16l-8 8z"/><path fill="#FFA292" fill-rule="nonzero" d="M7.1 49.5A12 12 0 0 1 19 39h12a12 12 0 0 1 11.9 10.5 25 25 0 0 1-35.8 0z"/><path fill="#E74E4E" fill-rule="nonzero" d="M19 39h12v2a6 6 0 1 1-12 0v-2z"/><path fill="#FFDBD5" fill-rule="nonzero" d="M20 36h10v5a5 5 0 0 1-10 0v-5z"/><path fill="#862923" fill-rule="nonzero" d="M20 36h10a4 4 0 0 1-4 4h-2a4 4 0 0 1-4-4z"/><g transform="translate(10)"><path fill="#FFDBD5" fill-rule="nonzero" d="M27 25.9c1 .3 2.3-1 2.8-2.9s0-3.6-1-3.9c-1-.3-2.4 0-2.9 1.9-.5 1.8 0 4.6 1 4.9zm-23.5 0c-1 .3-2.3-1-2.8-2.9s0-3.6 1-3.9c1-.3 2.4 0 2.9 1.9.5 1.8 0 4.6-1 4.9z"/><path fill="#FFDBD5" fill-rule="nonzero" d="M15.2 38c6.7 0 12-7.2 12-16 0-9 .2-16-12-16s-12 7-12 16c0 8.8 5.4 16 12 16z"/><circle cx="20.2" cy="20.9" r="1" fill="#862923" fill-rule="nonzero"/><circle cx="10.2" cy="20.9" r="1" fill="#862923" fill-rule="nonzero"/><path stroke="#862923" stroke-linecap="round" d="M19.2 29c-.8 1.3-2.1 2-4 2-1.8 0-3.2-.7-4-2"/><path stroke="#E74E4E" stroke-linecap="round" d="M16.2 26c-.2.6-.5 1-1 1-.4 0-.8-.4-1-1"/><path stroke="#862923" stroke-linecap="round" d="M22.2 17.3a4 4 0 0 0-2-.6 4 4 0 0 0-2 .6m-6 0a4 4 0 0 0-2-.6 4 4 0 0 0-2 .6"/><path fill="#E74E4E" fill-rule="nonzero" d="M15 .2A8 8 0 0 0 5 8.2c-2.3.4-3.3 3.5-2.8 7.4l1.1 7c.7-.4 1-1.1 1-2V20a5 5 0 0 1 1.4-3.4c.7-3.4 1.6-5.4 2.6-6 1.2-1.7 6.9.2 17.1 6l1.3 1.4v2.3c0 .7.2 1.3.6 1.7 1.2-6 1.2-10.1 0-12.5-2.8-6-10-8.7-12.2-9.2z"/><path fill="#862923" fill-rule="nonzero" d="M26.6 18l-1.3-1.5c-10.3-5.8-16-7.7-17-6-1.1.6-2 2.6-2.7 6-.2-3 .1-4.8 1-5.5.6-.4 1-.6 1.6-.4.9-3 3-4.2 6.3-3.9 3.3.4 7.4 4 12 11.2z"/></g></g><g transform="translate(40 315)"><path fill="#FFA292" fill-rule="nonzero" d="M68.2 20.3h71.2v71.4H68.2z"/><path fill="#FFDBD5" fill-rule="nonzero" d="M52.9 17.3h30.6v3H52.9z"/><path fill="#FEA0AD" fill-rule="nonzero" d="M83.5 17.3h53.7v3H83.5z"/><path fill="#F7C9C9" fill-rule="nonzero" d="M63.1 4h10.2l10.2 13.3H52.9z"/><path fill="#862923" fill-rule="nonzero" d="M73.3 4H127l10.2 13.3H83.5z"/><path fill="#FFA292" fill-rule="nonzero" d="M42.7 20.3h30.6v71.4H42.7z"/><path fill="#E74E4E" fill-rule="nonzero" d="M51.9 28H65v63.7H52z"/><path fill="#862923" fill-rule="nonzero" d="M57.5 28H65v63.7h-7.6z"/><g fill-rule="nonzero" transform="translate(22.1 37.3)"><path fill="#E74E4E" stroke="#F9F9F9" stroke-linejoin="round" d="M.9 3.3C15-1 25.3-.4 31.4 5.3c3.1 3 9.8 4 19.9 3.4h.5v29l-.5.1c-11.7.4-19.6-.8-23.6-3.8-6.9-5-15.7-5.5-26.5-1.2l-.7.2V3.4l.4-.1z"/><path fill="#E74E4E" stroke="#F9F9F9" stroke-linejoin="round" d="M.9 3.3C15-1 25.3-.4 31.4 5.3c3.1 3 9.8 4 19.9 3.4h.5v29l-.5.1c-11.7.4-19.6-.8-23.6-3.8-6.9-5-15.7-5.5-26.5-1.2l-.7.2V3.4l.4-.1z"/><path fill="#FFF" d="M9.4 5C20 3 24 4.5 29.4 8.3c5 3.4 13.7 5 26 4-.1 3.4 1.5 5.8 5 7l.1 11.6c-1-.5-2.4-.5-4 0-1.7.7-.2 2.4 4.3 5.3-2.7-1.5-4.6-2.2-5.7-2.2-16.5.8-21.6-1-25.7-3-6.8-3.5-9.8-6.2-17.7-5.3-.4-4.3-4.3-5.7-7.6-4.6v-9.4c3.9-1 5.3-4 5.3-6.7z"/><ellipse cx="6" cy="24.8" fill="#FFF" rx="2" ry="2"/><ellipse cx="5.7" cy="7" fill="#FFF" rx="1.6" ry="1.6"/><path fill="#E74E4E" d="M30 33.2c5 1.8 8.9-2.8 8.9-10 0-7.4-4-14.8-8.8-16.6-4.9-1.8-8.8 2.8-8.8 10 0 7.4 4 14.8 8.8 16.6z"/><path fill="#FFF" d="M24.4 12.4l2.9 1 1 .5 1 .8A3.3 3.3 0 0 1 30 17c0 .6-.2 1-.4 1.4-.3.3-.7.4-1.2.3l1.9 4.3-2-.7-1.6-4-.8-.3v3.4l-1.6-.6v-8.4zm1.6 4.2l1 .3.4.2h.5c.1 0 .3 0 .3-.2.1 0 .2-.2.2-.5s-.2-.7-.4-1c-.2 0-.3-.2-.5-.3l-.4-.2-1.1-.4v2zm5.2.8l1.4.5v.8l.6-.4h1l1 .6c.4.3.6.6.8 1a4.5 4.5 0 0 1 .6 3.6l-.5.8c-.2.2-.4.4-.7.4h-1l-1-.6c-.2-.2-.5-.5-.6-.8v3.4l-1.6-.6v-8.7zm1.6 3.4c0 .4 0 .8.3 1.2.2.3.5.5.9.7.3.1.6 0 .8 0 .2-.3.3-.6.3-1a2 2 0 0 0-.3-1.1c-.2-.4-.5-.6-.8-.7-.4-.2-.7-.2-1 0l-.2 1z"/></g><path fill="#FFA292" fill-rule="nonzero" d="M77.5 28H65v63.7h12.4z"/><path fill="#E74E4E" fill-rule="nonzero" d="M64.9 35.8h11v1h-11v-1zm0 4h11v1h-11v-1zm0 4.1h11v1h-11v-1zm0 4.1h11v1h-11v-1zm0 4h11v1.1h-11v-1zm0 4.2h11v1h-11v-1zm0 4h11v1h-11v-1zm0 4.1h11v1h-11v-1zm0 4.1h11v1h-11v-1zm0 4h11v1.1h-11v-1zM68 80h74v12H68V80z"/><path fill="#F9F9F9" fill-rule="nonzero" d="M84 34v42h3v4H73v-4h3V34h-3v-4h14v4h-3zm25 0v42h3v4H98v-4h3V34h-3v-4h14v4h-3zm25 0v42h3v4h-14v-4h3V34h-3v-4h14v4h-3z"/><path stroke="#862923" stroke-width=".8" d="M40.4 91.5h119.5M.4 91.5h20"/><path fill="#E74E4E" fill-rule="nonzero" d="M68 20l37-20 37 20v10H68z"/><circle cx="105" cy="15" r="5" fill="#F9F9F9" fill-rule="nonzero"/></g><path stroke="#862923" stroke-linecap="round" stroke-width="3.2" d="M77.4 399h-9.1m2.4 5.7l-5.2-5.7 5.5-5.6"/><g transform="translate(187 371)"><ellipse cx="8" cy="12" fill="#FFDBD5" fill-rule="nonzero" rx="8" ry="12"/><path stroke="#862923" stroke-linecap="square" d="M8 9v26.5"/></g><path fill="#FCEEEE" fill-rule="nonzero" d="M423 332c32 4.8 25.5 33.4 44 24.7 18.5-8.6 39.5-4.7 55.1 21.3 15.6 26-11.8 28-22.2 28H397.5c-11.6 0-19.5-7.5-19.5-27.2s13-51.6 45-46.8z"/><path fill="#E74E4E" fill-rule="nonzero" d="M483.5 337.5H511V407h-31.5v-65.5a4 4 0 0 1 4-4z"/><path fill="#862923" fill-rule="nonzero" d="M486.5 348.5h12V407h-12z"/><path fill="#F9F9F9" fill-rule="nonzero" d="M485.5 348.5h6V407h-6z"/><path fill="#A5322D" fill-rule="nonzero" d="M540.7 306c19.8 0 35.8 16 35.8 35.8V407h-71.7v-65.2c0-19.8 16-35.8 35.9-35.8z"/><path fill="#FFA292" fill-rule="nonzero" d="M536.8 306a32 32 0 0 1 32 32v69h-64v-69a32 32 0 0 1 32-32z"/><path fill="#E74E4E" fill-rule="nonzero" d="M534 367.3h47V407h-47z"/><path fill="#FFF" fill-rule="nonzero" d="M539.3 373H576v34h-36.7z"/><path fill="#E74E4E" fill-rule="nonzero" d="M546.4 379.2h22.7V407h-22.7z"/><g transform="translate(546.4 379.2)"><mask id="B" fill="#fff"><use xlink:href="#A"/></mask><path fill="#A5322D" fill-rule="nonzero" d="M11 0v27.8h.8V0z" mask="url(#B)"/></g><path fill="#A5322D" fill-rule="nonzero" d="M546.4 379.2h.9V407h-.9z"/><path fill="#A5322D" fill-rule="nonzero" d="M546.4 379.2h22.7v1h-22.7z"/><path fill="#FFF" fill-rule="nonzero" d="M510 371.3h16.7v6.1H510z"/><path fill="#AA342C" fill-rule="nonzero" d="M510 371.3h16.7v1H510z"/><path fill="#AA342C" fill-rule="nonzero" d="M510 371.3h1v6.1h-1z"/><path fill="#FFF" fill-rule="nonzero" d="M510 381.8h16.7v6.1H510z"/><path fill="#AA342C" fill-rule="nonzero" d="M510 381.8h16.7v1H510z"/><path fill="#AA342C" fill-rule="nonzero" d="M510 381.8h1v6.1h-1z"/><g fill-rule="nonzero"><path fill="#FFF" d="M510 392.3h16.7v6.1H510z"/><path fill="#AA342C" d="M510 392.3h16.7v1H510z"/><path fill="#AA342C" d="M510 392.3h1v6.1h-1z"/></g><path fill="#E74E4E" fill-rule="nonzero" d="M536.8 310.4c14.8 0 26.7 12 26.7 26.7V363h-53.4v-25.8c0-14.8 12-26.7 26.7-26.7z"/><g transform="translate(510 310.4)"><mask id="D" fill="#fff"><use xlink:href="#C"/></mask><path fill="#FFF" fill-rule="nonzero" d="M28.5 0c14.7 0 26.7 12 26.7 26.7v25.8H1.7V26.7C1.7 12 13.7 0 28.5 0z" mask="url(#D)"/></g><g transform="translate(510 310.4)"><mask id="F" fill="#fff"><use xlink:href="#E"/></mask><g fill-rule="nonzero" mask="url(#F)"><path fill="#B13932" d="M48.3 18A22.4 22.4 0 1 0 6.5 34 22.4 22.4 0 0 0 48.3 18z"/><path fill="#CC4641" d="M48.3 18c1.2 3 1.7 6 1.5 9.2l-2.2 2.7A38.8 38.8 0 0 0 20 7.4C21 6.2 21.8 5 22.7 4A22.5 22.5 0 0 1 48.3 18zM49.8 27.2c0 2-.4 3.9-1 5.8l-.6-1.7-.6-1.4 2.2-2.7z"/><path fill="#B13932" d="M48.2 31.3l.6 1.7a22.5 22.5 0 0 1-32.6 12.6 30.7 30.7 0 0 1-1.2-3.1 39 39 0 0 0 32.6-12.6l.6 1.4z"/><path fill="#BE4137" d="M47.6 29.9A39 39 0 0 1 15 42.5c-4-11.9-2.2-25 5.1-35.1a38.8 38.8 0 0 1 27.5 22.5z"/><path fill="#A5322D" d="M22.7 4.1c-.9 1-1.8 2.1-2.6 3.3-1.3-.3-2.7-.6-4-.7 2-1.2 4.3-2 6.6-2.6z"/><path fill="#A5322D" d="M16 6.7c1.4.1 2.8.4 4.1.7A38.8 38.8 0 0 0 15 42.5a38 38 0 0 1-3.5-.5A22.5 22.5 0 0 1 16 6.7z"/><path fill="#B13932" d="M15.5 44l.7 1.6a22 22 0 0 1-4.7-3.6l3.5.5.5 1.5z"/><path fill="#FFF" d="M12.3 13.3h7.5l3 .3c1 .2 1.9.5 2.7 1 .7.5 1.3 1.1 1.8 1.9.4.8.6 1.8.6 3a6 6 0 0 1-1.3 4c-.8 1-2 1.7-3.7 2l5.8 9.5H24l-5-9.2h-2.8V35h-3.9V13.3zm6.9 9.2h1.6l1.5-.4c.5-.2.9-.5 1.2-1 .3-.3.4-.9.4-1.6 0-.5-.1-1-.4-1.5-.3-.4-.6-.7-1-.9l-1.5-.4h-4.8v5.8h3zm9.7-3.1h3.5v2.2c.5-.9 1.3-1.6 2.2-2 1-.4 2-.6 3-.6s2 .2 3 .6a6.8 6.8 0 0 1 3.7 4 9.2 9.2 0 0 1 0 6.1c-.4 1-.9 1.8-1.5 2.5a6.7 6.7 0 0 1-5.1 2.2 7.2 7.2 0 0 1-3.3-.7 5.7 5.7 0 0 1-1.7-1.5h-.1V41h-3.7V19.4zm12.2 7.3c0-.6-.1-1.1-.3-1.6-.2-.6-.5-1-.9-1.5a4.5 4.5 0 0 0-5-1c-1 .5-1.8 1.4-2.2 2.5-.3 1-.3 2.2 0 3.3.2.5.5 1 .9 1.4a4.5 4.5 0 0 0 5 1 4.3 4.3 0 0 0 2.5-4z"/></g></g><g transform="translate(389 340)"><circle cx="25" cy="32" r="25" fill="#F9F9F9" fill-rule="nonzero" stroke="#FFA292"/><path fill="#FFA292" fill-rule="nonzero" d="M17 55h16l-8 8z"/><path fill="#FFA292" fill-rule="nonzero" d="M7.1 49.5A12 12 0 0 1 19 39h12a12 12 0 0 1 11.9 10.5 25 25 0 0 1-35.8 0z"/><path fill="#E74E4E" fill-rule="nonzero" d="M19 39h12v2a6 6 0 1 1-12 0v-2z"/><path fill="#FFDBD5" fill-rule="nonzero" d="M20 36h10v5a5 5 0 0 1-10 0v-5z"/><path fill="#862923" fill-rule="nonzero" d="M20 36h10a4 4 0 0 1-4 4h-2a4 4 0 0 1-4-4z"/><g transform="translate(10)"><path fill="#FFDBD5" fill-rule="nonzero" d="M27 25.9c1 .3 2.3-1 2.8-2.9s0-3.6-1-3.9c-1-.3-2.4 0-2.9 1.9-.5 1.8 0 4.6 1 4.9zm-23.5 0c-1 .3-2.3-1-2.8-2.9s0-3.6 1-3.9c1-.3 2.4 0 2.9 1.9.5 1.8 0 4.6-1 4.9z"/><path fill="#FFDBD5" fill-rule="nonzero" d="M15.2 38c6.7 0 12-7.2 12-16 0-9 .2-16-12-16s-12 7-12 16c0 8.8 5.4 16 12 16z"/><circle cx="20.2" cy="20.9" r="1" fill="#862923" fill-rule="nonzero"/><circle cx="10.2" cy="20.9" r="1" fill="#862923" fill-rule="nonzero"/><path stroke="#862923" stroke-linecap="round" d="M19.2 29c-.8 1.3-2.1 2-4 2-1.8 0-3.2-.7-4-2"/><path stroke="#E74E4E" stroke-linecap="round" d="M16.2 26c-.2.6-.5 1-1 1-.4 0-.8-.4-1-1"/><path stroke="#862923" stroke-linecap="round" d="M22.2 17.3a4 4 0 0 0-2-.6 4 4 0 0 0-2 .6m-6 0a4 4 0 0 0-2-.6 4 4 0 0 0-2 .6"/><path fill="#E74E4E" fill-rule="nonzero" d="M15 .2A8 8 0 0 0 5 8.2c-2.3.4-3.3 3.5-2.8 7.4l1.1 7c.7-.4 1-1.1 1-2V20a5 5 0 0 1 1.4-3.4c.7-3.4 1.6-5.4 2.6-6 1.2-1.7 6.9.2 17.1 6l1.3 1.4v2.3c0 .7.2 1.3.6 1.7 1.2-6 1.2-10.1 0-12.5-2.8-6-10-8.7-12.2-9.2z"/><path fill="#862923" fill-rule="nonzero" d="M26.6 18l-1.3-1.5c-10.3-5.8-16-7.7-17-6-1.1.6-2 2.6-2.7 6-.2-3 .1-4.8 1-5.5.6-.4 1-.6 1.6-.4.9-3 3-4.2 6.3-3.9 3.3.4 7.4 4 12 11.2z"/></g></g><g transform="translate(444 351)"><ellipse cx="23.1" cy="23.1" fill="#AA342C" fill-rule="nonzero" rx="23.1" ry="23.1" transform="translate(3.9)"/><g transform="translate(3.9)"><mask id="H" fill="#fff"><use xlink:href="#G"/></mask><path fill="#F5576E" fill-rule="nonzero" d="M23.1 2h23.2v.3H23V2zm0 3.8h23.2v.4H23v-.4zm0 5.8h23.2v.7H23v-.7zm0 7.7h23.2v.7H23v-.7zm0 7.7h23.2v.8H23V27zm0 7.7h23.2v.8H23v-.8zm0 5.8h23.2v.4H23v-.4zm0 3.8h23.2v.4H23v-.4z" mask="url(#H)"/></g><g transform="translate(3.9)"><mask id="J" fill="#fff"><use xlink:href="#I"/></mask><path fill="#FFF" fill-rule="nonzero" d="M36.2 11.2h9v1h-9v-1zm1.2 7.7h8.9v1h-8.9v-1zM33.2 5H42v1h-8.8V5zm-6.6-3.8h8.9v1h-8.9v-1z" mask="url(#J)"/></g><ellipse cx="23.1" cy="23.1" fill="#F24C32" fill-rule="nonzero" stroke="#862923" rx="22.6" ry="22.6"/><g><ellipse cx="19.3" cy="19.3" fill="#862923" fill-rule="nonzero" rx="19.3" ry="19.3" transform="translate(3.9 3.9)"/><g transform="translate(3.9 3.9)"><mask id="L" fill="#fff"><use xlink:href="#K"/></mask><ellipse cx="20.8" cy="19.3" fill="#F24C32" fill-rule="nonzero" mask="url(#L)" rx="19.3" ry="19.3"/></g><g transform="translate(3.9 3.9)"><mask id="N" fill="#fff"><use xlink:href="#M"/></mask><g fill-rule="nonzero" mask="url(#N)"><path fill="#AA342C" d="M12.1 12.7h4.4l1.7.2 1.5.6c.4.2.8.6 1 1 .3.5.4 1 .4 1.7 0 .9-.3 1.6-.8 2.2-.4.6-1.2 1-2 1l3.2 5.4h-2.7L16 19.7h-1.7v5h-2.2v-12zm4 5.1h1c.2 0 .5 0 .8-.2l.6-.5c.2-.2.3-.5.3-1 0-.3-.1-.6-.3-.8-.1-.2-.3-.4-.6-.5l-.8-.2h-2.8v3.2h1.8zm7-1.2h2v1.2c.2-.4.7-.8 1.2-1 .5-.3 1-.4 1.7-.4.6 0 1.2.1 1.7.4a4 4 0 0 1 2.2 2.2 5 5 0 0 1 0 3.4c-.3.5-.5 1-.9 1.3l-1.3 1a4 4 0 0 1-1.7.3 4.2 4.2 0 0 1-1.8-.4 3.2 3.2 0 0 1-1-.9v5H23v-12zm7 4.1l-.2-1a2.3 2.3 0 0 0-1.3-1.2c-.4-.2-.7-.3-1-.2a2.5 2.5 0 0 0-1.9.7l-.5.8a2.6 2.6 0 0 0 .5 2.6 2.4 2.4 0 0 0 1.8.8 2.5 2.5 0 0 0 1.9-.8l.5-.8.1-.9z"/><path fill="#FFF" d="M10.4 12.7h4.3l1.7.2 1.5.6c.4.2.8.6 1 1 .3.5.4 1 .4 1.7 0 .9-.2 1.6-.7 2.2-.5.6-1.2 1-2.2 1l3.4 5.4H17l-2.9-5.1h-1.6v5h-2.2v-12zm3.9 5.1h1c.3 0 .6 0 .8-.2l.7-.5.2-1c0-.3 0-.6-.2-.8l-.6-.5-.8-.2h-2.9v3.2h1.8zm7-1.2h2v1.2c.3-.4.7-.8 1.2-1 .6-.3 1.1-.4 1.7-.4.6 0 1.2.1 1.7.4a3.9 3.9 0 0 1 2.2 2.2 5 5 0 0 1 0 3.4c-.2.5-.5 1-.9 1.3-.3.4-.8.7-1.3 1a4 4 0 0 1-1.6.3 4.2 4.2 0 0 1-1.9-.4 3.2 3.2 0 0 1-1-.9v5h-2.1v-12zm7 4.1c0-.3 0-.6-.2-1a2.3 2.3 0 0 0-1.3-1.2c-.3-.2-.7-.3-1-.2a2.5 2.5 0 0 0-1.8.7c-.3.2-.4.5-.5.8a2.6 2.6 0 0 0 .5 2.6 2.4 2.4 0 0 0 1.8.8 2.5 2.5 0 0 0 1.8-.8l.5-.8.2-.9z"/></g></g></g></g><path stroke="#862923" stroke-linecap="round" stroke-width="3.2" d="M438.6 343h9.1m-2.4 5.7l5.2-5.7-5.5-5.6"/><path stroke="#6B0D07" stroke-width=".8" d="M459.4 406.6h121.5"/><g transform="translate(379 381)"><ellipse cx="5" cy="8" fill="#FFA292" fill-rule="nonzero" rx="5" ry="8"/><path stroke="#862923" stroke-linecap="square" d="M5 8v16.7"/></g><path stroke="#6B0D07" stroke-width=".8" d="M379.4 406.6h59.5"/><g stroke="#F5A500" stroke-width="5"><path stroke-dasharray="10,10" d="M468.4 445c-15.5 25-39.3 40.5-71.6 46.8"/><path stroke-linecap="round" d="M399.9 482.1l-6.6 12 12.9 3.5"/></g><g stroke="#F5A500" stroke-width="5"><path stroke-dasharray="10,10" d="M175.2 497c-29-4.4-52.6-20.3-71-47.6"/><path stroke-linecap="round" d="M114.3 448.5l-13.5-1.4 1.7 13.2"/></g><g><path fill="#FCEEEE" fill-rule="nonzero" d="M249.2 452.6c16.3-6 32.3 4 48 29.9 31.2-4.6 49 2.5 53.7 21a37.3 37.3 0 0 1-36.2 46.3H227c-14 0-36-8.7-36-35 0-17.5 11-28.3 33.2-32.3.3-14 8.6-24 25-29.9z"/><g fill-rule="nonzero"><path fill="#ED694A" d="M319.4 422.3c-2-2.4-5-5.6-6.2 1.6-.5 2.4-1.5 4.3-2.3 5.8a38 38 0 0 0-6.5-14.4 32 32 0 0 1-5.2-16.1c0-1.4-1.6-2-2.5-1.1a49.5 49.5 0 0 0-13.7 34.7s-3.7-3.4-5.6-9.8c-.6-1.7-2.6-2-3.5-.5l-.5.9a70.1 70.1 0 0 0-7 44.5c5 25.1 38.2 32.2 55.8 16.4 17.2-15.5 11.8-44.3-2.8-62z"/><path fill="#D8553A" d="M271.2 470c-3-15.3.1-31.7 6.8-45.3l-.5-1.4c-.5-1.7-2.6-2-3.5-.5l-.5.9a69.9 69.9 0 0 0-7 44.7A30.4 30.4 0 0 0 287 491a30.3 30.3 0 0 1-15.8-21.2zm16.8-37a51.5 51.5 0 0 1 11.8-32.4l-.1-1.2c-.1-1.4-1.6-2-2.5-1.2a49.4 49.4 0 0 0-14 35l1.6 1.3a2 2 0 0 0 2.7 0c.4-.3.5-1 .5-1.6z"/><path fill="#F4A32C" d="M312.8 440.4c-1.5-1.7-3.7-4.1-4.7 1.2a13 13 0 0 1-1.7 4.4c-.7-4-2.8-8-4.8-10.8-.7-1-3.4-5.1-3.9-12 0-1-1.1-1.4-1.8-.8a36.7 36.7 0 0 0-10.2 25.8s-2.8-2.5-4.2-7.2c-.4-1.3-2-1.6-2.6-.4l-.4.6a52 52 0 0 0-5.2 33c3.7 18.7 28.5 24 41.6 12.2 12.8-11.5 8.7-32.9-2.1-46z"/><path fill="#E89528" d="M278.3 477c-2.1-11 0-22.8 4.6-32.6l-1-2.4c-.4-1.3-2-1.6-2.7-.4l-.4.6c-5.3 10-7.8 22-5.5 33.3a23.1 23.1 0 0 0 16.4 17.2 22 22 0 0 1-11.4-15.7z"/><path fill="#F4D44E" d="M309 456.4c-.9-1.2-2.4-2.8-3 .9a9.3 9.3 0 0 1-1.1 3 20 20 0 0 0-3.2-7.5 17 17 0 0 1-2.5-8.3c-.1-.7-.8-1-1.3-.6a26.2 26.2 0 0 0-6.7 18s-1.8-1.8-2.7-5.1c-.3-.9-1.3-1-1.8-.3l-.2.5a37.8 37.8 0 0 0-3.4 22.9c2.4 13 18.7 16.6 27.3 8.4 3-2.8 4.8-6.7 5.2-11 .5-6.6-1.6-14.6-6.6-20.9z"/><path fill="#EAE9E8" d="M303.3 473.9c-.6-.7-1.4-1.6-1.7.4-.2.7-.4 1.3-.7 1.7-.2-1.5-1-3.1-1.8-4.2-.2-.4-1.2-2-1.4-4.6 0-.4-.4-.6-.7-.3-2.4 2.5-3.7 6-3.8 10 0 0-1-1-1.6-2.8-.1-.5-.7-.6-1-.2v.3a21 21 0 0 0-2 12.8c1.9 9.9 17.4 9.6 18.4-1.5.3-3.7-1-8.1-3.7-11.6z"/><path fill="#F7E7A1" d="M292.4 489a16.6 16.6 0 0 1 2.1-11.7c.3-.4.8-.3 1 .1.6 1.7 1.6 2.6 1.6 2.6 0-3 1-5.6 2.7-7.7-.4-.6-1.5-2-1.8-5.1 0-.4-.4-.6-.7-.3-2.5 2.5-3.9 6-4 10 0 0-1-1-1.5-2.8-.2-.5-.8-.6-1-.1l-.2.2c-2 3.9-2.8 8.5-2 12.9a9 9 0 0 0 7.7 7c-2-1-3.4-2.8-4-5z"/><path fill="#D8553A" d="M284.8 402.6a9.4 9.4 0 0 0 0-13.6 9.4 9.4 0 0 0 0 13.6zm46.7 28.3a9.4 9.4 0 0 0 0-13.6c-1.8 1.6-4 10 0 13.6zm-69 2.7a6.8 6.8 0 0 0 0-9.9c-1.3 1.2-2.8 7.3 0 9.9zm48.6-21.2a6.8 6.8 0 0 0 0-9.8 6.8 6.8 0 0 0 0 9.8z"/><path fill="#E8C842" d="M287.6 481.6c-1.3-7-.2-14.4 2.4-20.8-.6-1-1.1-2-1.5-3.1-.2-.9-1.2-1-1.7-.3l-.2.5c-3.3 6.5-5 14.5-3.4 21.9a15 15 0 0 0 10.3 11.3c-2.9-2.1-5.1-5.4-5.9-9.5z"/></g><path fill="#AA342C" fill-rule="nonzero" d="M278.5 512.2c.9 0 3 8.6 6.5 25.8l.7 6.6a41.8 41.8 0 0 0 38.6-41.8c0-9.6-2.4-15-10-17.9-.1 0-.2.2-.2.5.2 1.8 0 2.9-.4 3.2-20.5 13.9-34.6 17.7-38.4 15.8-5.9-3 1.7-22.3-5.4-22.3-2.9 0-3.4-7.1-1.5-21.3l-1.2.3c-17.1 5.8-9.1 22.6-9.1 41.7 0 23.8-3.5 9.4 20.4 9.4z"/><g transform="translate(255.2 460.6)"><mask id="P" fill="#fff"><use xlink:href="#O"/></mask><path fill="#F5576E" fill-rule="nonzero" d="M25.9 1.9H69v.7H25.9V2zm0 7.2H69v.8H25.9V9zm0 11H69v1.4H25.9V20zm0 14.5H69V36H25.9v-1.4zm0 14.5H69v1.5H25.9V49zm0 14.5H69v1.5H25.9v-1.5zm0 11H69v.7H25.9v-.8zm0 7.2H69v.7H25.9v-.7z" mask="url(#P)"/></g><g transform="translate(255.2 460.6)"><mask id="R" fill="#fff"><use xlink:href="#Q"/></mask><path fill="#FFF" fill-rule="nonzero" d="M50.3 19.2h17.3v1.4H50.3v-1.4zm3 14.4h17.2V35H53.2v-1.4zM44.5 9h17.3v1.4H44.6V9.1zM33 1.9h17.2v1.4H33.1V2z" mask="url(#R)"/></g><g><path fill="#AA342C" fill-rule="nonzero" d="M285.6 544.6l-5-7.3V527l-4.2-10.7 2 10.7-4.9 10.3.7 8.6a43 43 0 0 1-40.6-43.1 44.3 44.3 0 0 1 34.9-42v1.5c0 5.4 2.8 9.6 7.9 10.1a15.7 15.7 0 0 0 23.8 13.5 10.4 10.4 0 0 0 14-1l.3.7c2.4 5.3 2.6 11 2.6 17.2 0 19.5-13.4 36.9-31.5 41.8z"/><path fill="#F24C32" fill-rule="nonzero" stroke="#AA342C" stroke-width="1.7" d="M285.8 543.2l-5.2-5.9V527l-4.2-10.7 1 10.7-7 10.3.6 7a41.8 41.8 0 0 1-6-82l-.1.8a31.3 31.3 0 0 0 49.7 25.4 41.7 41.7 0 0 1-28.8 54.7z"/><g transform="translate(233.6 461.8)"><mask id="T" fill="#fff"><use xlink:href="#S"/></mask><circle cx="41.8" cy="41" r="31.3" fill="#862923" fill-rule="nonzero" mask="url(#T)"/></g><g transform="translate(233.6 461.8)"><mask id="V" fill="#fff"><use xlink:href="#U"/></mask><circle cx="44.6" cy="41" r="31.3" fill="#F24C32" fill-rule="nonzero" mask="url(#V)"/></g><g transform="translate(233.6 461.8)"><mask id="X" fill="#fff"><use xlink:href="#W"/></mask><path fill="#AA342C" fill-rule="nonzero" d="M28 28h8c1.1 0 2.2.1 3.2.3 1 .2 2 .6 2.8 1 .8.6 1.4 1.3 1.9 2.1.5 1 .7 2 .7 3.3 0 1.7-.5 3.1-1.4 4.3a5.9 5.9 0 0 1-4 2l6.2 10.4h-5l-5.3-9.9h-3v10H28V28zm7.3 10l1.7-.1c.6 0 1.1-.2 1.7-.4l1.1-1c.3-.4.5-1 .5-1.8a3 3 0 0 0-.4-1.7l-1.1-1a5 5 0 0 0-1.5-.3l-1.7-.1h-3.5v6.3h3.2zM48 35.5H52v2.3a5 5 0 0 1 2.3-2c1-.5 2-.8 3-.7a7.2 7.2 0 0 1 7.2 5 10 10 0 0 1 0 6.6c-.3 1-.8 1.9-1.5 2.6a7.1 7.1 0 0 1-5.4 2.4A7.4 7.4 0 0 1 54 51a6 6 0 0 1-1.9-1.6V59h-4V35.6zm13 7.9l-.3-1.8a4.5 4.5 0 0 0-4.3-3 4.5 4.5 0 0 0-4.3 3 5.3 5.3 0 0 0 1 5.1 4.5 4.5 0 0 0 7.6-1.5l.3-1.8z" mask="url(#X)"/></g><g transform="translate(233.6 461.8)"><mask id="Z" fill="#fff"><use xlink:href="#Y"/></mask><path fill="#FFF" fill-rule="nonzero" d="M25 28h8c1.1 0 2.2.1 3.2.3 1 .2 2 .6 2.8 1 .8.6 1.4 1.3 1.9 2.1.5 1 .7 2 .7 3.3 0 1.7-.5 3.1-1.4 4.3a5.9 5.9 0 0 1-4 2l6.2 10.4h-5l-5.3-9.9h-3v10H25V28zm7.3 10l1.7-.1c.6 0 1.1-.2 1.7-.4l1.1-1c.3-.4.5-1 .5-1.8a3 3 0 0 0-.4-1.7l-1.1-1a5 5 0 0 0-1.5-.3l-1.7-.1h-3.5v6.3h3.2zM45 35.5H49v2.3a5 5 0 0 1 2.3-2c1-.5 2-.8 3-.7a7.2 7.2 0 0 1 7.2 5 10 10 0 0 1 0 6.6c-.3 1-.8 1.9-1.5 2.6a7.1 7.1 0 0 1-5.4 2.4A7.4 7.4 0 0 1 51 51a6 6 0 0 1-1.9-1.6V59h-4V35.6zm13 7.9l-.3-1.8a4.5 4.5 0 0 0-4.3-3 4.5 4.5 0 0 0-4.3 3 5.3 5.3 0 0 0 1 5.1 4.5 4.5 0 0 0 7.6-1.5l.3-1.8z" mask="url(#Z)"/></g></g></g><path fill="#F5A500" fill-rule="nonzero" d="M274 358.6l11-9.8 1.6-1.8c.6-.6.9-1.3.9-2.2 0-1-.4-1.7-1-2.3-.8-.5-1.6-.8-2.5-.8-1.1 0-2 .4-2.6 1-.6.8-1 1.6-1 2.6l-6-.4a8 8 0 0 1 6.1-8.1 13.2 13.2 0 0 1 7.4 0c1.1.3 2.1.8 3 1.5.8.7 1.4 1.6 1.9 2.7.4 1 .7 2.3.7 3.7 0 1-.1 1.7-.3 2.5a8.3 8.3 0 0 1-2 3.6l-1.4 1.5-8.6 7.4h12.5v5.3H274v-6.4zm227.5 76.8l-5.7 5-3.4-4 9.3-7.7h5.6V457h-5.8v-21.6zm-439.9.4h3.6l1.5-.5c.4-.3.8-.6 1-1 .3-.4.5-1 .5-1.6 0-.9-.4-1.6-1-2.1-.7-.6-1.6-.9-2.6-.9-.9 0-1.7.3-2.3.8-.6.5-1 1.1-1.2 1.9l-6.6-1.4a9 9 0 0 1 1.5-3.1 8 8 0 0 1 2.2-2.1c1-.6 1.9-1 3-1.2a15 15 0 0 1 7 0c1.2.4 2.2.8 3 1.5 1 .7 1.7 1.5 2.2 2.5.5 1 .8 2.1.8 3.5 0 1.6-.5 2.9-1.3 4s-2 1.9-3.6 2.2v.1a5.6 5.6 0 0 1 4 2.2l1 2 .3 2.4a7.8 7.8 0 0 1-3 6.4c-.9.7-2 1.2-3.2 1.6-1.3.3-2.6.5-4 .5-2.5 0-4.7-.6-6.5-1.8-1.8-1.2-3-3-3.6-5.5l6.3-1.5c.2 1 .6 1.8 1.3 2.4.7.6 1.6.9 2.9.9 1.3 0 2.3-.4 2.9-1 .6-.7 1-1.6 1-2.7a3 3 0 0 0-.6-1.8 3 3 0 0 0-1.3-1c-.5-.2-1.1-.4-1.8-.4h-3.4v-5.3z"/></g></g></svg>